<?xml version="1.0" standalone="no"?>
<!DOCTYPE svg PUBLIC "-//W3C//DTD SVG 20010904//EN"
 "http://www.w3.org/TR/2001/REC-SVG-20010904/DTD/svg10.dtd">
<svg version="1.0" xmlns="http://www.w3.org/2000/svg"
 width="400.000000pt" height="400.000000pt" viewBox="0 0 400.000000 400.000000"
 preserveAspectRatio="xMidYMid meet">
<metadata>
Created by potrace 1.11, written by Peter Selinger 2001-2013
</metadata>
<g transform="translate(0.000000,400.000000) scale(0.100000,-0.100000)"
fill="#000000" stroke="none">
<path d="M2095 3519 c-4 -6 -13 -8 -21 -5 -8 3 -22 -3 -31 -14 -19 -21 -39
-28 -27 -8 5 8 -2 9 -27 3 -19 -4 -43 -7 -54 -7 -11 1 -30 -8 -42 -20 -19 -18
-23 -19 -23 -5 0 8 9 18 19 22 11 3 21 12 24 19 4 10 -8 9 -46 -6 -29 -11 -62
-22 -74 -25 -12 -3 -30 -14 -39 -24 -20 -23 -34 -24 -34 -5 0 11 -11 8 -40
-11 -22 -15 -40 -32 -40 -39 0 -7 -5 -16 -12 -20 -8 -5 -9 -2 -5 9 5 14 2 16
-20 11 -20 -5 -24 -4 -18 6 6 10 4 11 -11 5 -10 -4 -27 -8 -37 -9 -11 0 -57
-38 -104 -83 -47 -46 -91 -83 -98 -83 -14 0 -52 -86 -47 -108 2 -6 -8 -17 -20
-23 -13 -5 -30 -20 -38 -33 -8 -13 -30 -45 -48 -72 -20 -29 -31 -57 -28 -68 3
-11 -2 -35 -10 -54 -7 -19 -14 -52 -14 -73 0 -22 -4 -39 -9 -39 -9 0 -35 -129
-27 -137 2 -3 10 22 17 54 12 53 14 55 17 24 3 -26 6 -31 13 -20 7 11 9 11 9
-3 0 -10 -6 -18 -14 -18 -16 0 -27 -46 -17 -74 4 -12 4 -39 0 -61 l-6 -40 -2
49 c-1 61 -12 54 -16 -11 -12 -182 -19 -302 -19 -325 -1 -14 -4 -29 -8 -33 -4
-4 -4 -21 -1 -37 5 -28 4 -30 -16 -23 -19 6 -22 4 -19 -12 2 -10 9 -17 16 -16
12 3 14 -4 30 -97 l9 -55 2 57 c0 31 6 60 11 63 6 3 10 27 11 53 1 26 4 58 8
72 4 14 5 -26 3 -89 -3 -83 -2 -112 7 -107 6 4 11 2 11 -5 0 -8 3 -9 9 -3 5 5
17 47 26 94 25 133 46 208 65 233 26 34 51 157 32 157 -6 0 -13 -6 -15 -12 -3
-7 -6 4 -6 25 -1 23 3 36 9 32 13 -8 20 10 24 61 2 21 5 39 6 39 1 0 4 13 6
29 6 51 55 118 111 150 29 16 50 33 47 38 -5 7 10 12 29 9 5 -1 24 6 42 15 19
9 41 14 50 11 8 -4 17 -2 20 3 3 5 19 5 37 -1 18 -5 40 -7 49 -4 9 3 38 -2 64
-11 26 -8 56 -13 66 -11 11 3 22 1 25 -4 11 -19 25 -8 44 34 13 29 19 35 19
21 1 -12 10 -31 21 -44 11 -13 20 -26 20 -30 0 -15 78 -39 127 -38 42 0 50 3
46 16 -4 10 -2 13 6 8 6 -4 17 -3 24 2 7 6 48 11 92 11 125 0 144 -2 149 -16
3 -7 12 -13 21 -13 8 0 15 -4 15 -9 0 -5 7 -12 16 -15 9 -4 13 -2 8 5 -4 8 1
9 17 4 13 -4 29 -14 34 -23 26 -40 45 -53 65 -42 29 15 37 12 44 -15 4 -14 12
-24 18 -22 7 1 14 -7 16 -17 5 -23 42 -65 42 -47 0 19 18 3 36 -30 15 -30 15
-30 -6 -19 -20 10 -21 10 -16 -8 5 -16 2 -21 -14 -24 -19 -3 -17 -7 19 -46 23
-24 41 -47 41 -52 0 -4 10 -10 23 -12 18 -3 22 0 24 21 0 14 -2 28 -5 31 -10
7 -32 73 -27 78 2 3 14 -12 26 -32 11 -20 25 -36 30 -36 13 0 11 13 -7 38 -19
28 -11 41 12 21 16 -13 17 -11 10 14 -4 16 -2 27 4 27 14 0 13 27 -1 32 -6 2
-13 19 -15 37 -2 18 -6 36 -9 41 -3 4 2 10 10 14 8 3 15 1 15 -4 0 -6 3 -10 8
-10 11 0 7 102 -6 133 -7 16 -12 35 -12 42 0 8 -12 20 -27 27 -14 7 -35 27
-44 45 -23 40 -2 34 26 -7 11 -17 26 -30 34 -30 10 0 6 9 -12 28 -15 15 -27
33 -27 38 0 13 -46 54 -60 54 -15 0 -12 20 3 20 7 0 4 7 -7 15 -11 8 -14 15
-8 15 13 0 12 26 -1 48 -5 7 -25 21 -45 32 l-37 19 34 -6 c27 -5 32 -3 26 7
-6 10 -4 12 9 7 14 -6 14 -2 -4 21 -12 15 -29 30 -38 34 -11 4 -5 7 17 7 50 1
24 24 -29 25 -22 1 -40 6 -40 11 1 6 12 9 25 7 13 -2 32 2 42 8 15 9 11 10
-20 7 -28 -2 -36 0 -32 10 3 10 0 11 -10 6 -18 -11 -105 -4 -105 8 0 5 6 9 14
9 7 0 20 8 27 17 12 15 12 16 -3 10 -12 -4 -18 -2 -18 8 0 14 -8 16 -72 19
-36 2 -45 12 -18 21 20 6 19 8 -14 26 -19 10 -41 17 -48 15 -7 -1 -10 -1 -5 1
13 8 -3 23 -24 23 -10 0 -19 4 -19 10 0 5 -7 7 -16 3 -10 -4 -17 2 -21 17 -5
19 -12 21 -57 20 -75 -3 -86 -2 -86 15 0 17 -26 20 -35 4z m341 -697 c-6 -5
-56 21 -56 29 0 5 13 0 29 -9 16 -9 28 -18 27 -20z m394 -53 c0 -6 -9 0 -20
14 -11 14 -20 29 -20 33 0 4 9 -2 20 -14 11 -12 20 -26 20 -33z m-65 -347 c-6
-7 -34 29 -34 43 0 6 9 -1 20 -14 11 -13 17 -26 14 -29z m-1613 -204 c2 -21 1
-35 -3 -30 -8 7 -13 56 -9 82 2 13 3 13 6 0 1 -8 4 -32 6 -52z"/>
<path d="M2726 3040 c12 -4 31 -21 43 -36 11 -14 21 -22 21 -17 0 18 -49 63
-67 62 -15 0 -15 -2 3 -9z"/>
<path d="M1100 2844 c-12 -32 -13 -61 -1 -48 10 10 23 74 16 74 -3 0 -10 -12
-15 -26z"/>
<path d="M2834 2370 c6 -30 15 -50 23 -50 11 0 10 6 -2 30 -8 16 -15 38 -15
50 0 11 -4 20 -8 20 -5 0 -4 -22 2 -50z"/>
<path d="M2850 2406 c0 -9 5 -16 10 -16 6 0 10 4 10 9 0 6 -4 13 -10 16 -5 3
-10 -1 -10 -9z"/>
<path d="M2829 2278 c4 -28 6 -29 9 -9 2 13 0 27 -5 32 -6 6 -7 -3 -4 -23z"/>
<path d="M2865 2301 c-3 -6 4 -15 15 -21 20 -11 21 -10 10 9 -12 23 -16 25
-25 12z"/>
<path d="M1527 2233 c-2 -1 -24 -5 -51 -8 -58 -7 -88 -18 -105 -39 -12 -14
-12 -16 3 -10 9 3 16 2 16 -3 0 -18 -32 -53 -48 -53 -15 0 -15 -2 -2 -10 25
-16 46 -11 60 15 7 14 22 25 32 25 11 0 28 5 39 11 12 6 25 7 32 1 7 -5 56 -9
109 -10 l98 -1 -15 28 c-8 16 -22 32 -32 36 -18 8 -132 23 -136 18z"/>
<path d="M2222 2212 l-22 -30 22 -5 c11 -3 44 -2 72 4 28 5 67 7 86 4 19 -3
42 -1 50 4 33 22 -110 52 -148 32 -17 -9 -23 -8 -30 5 -8 14 -12 12 -30 -14z"/>
<path d="M2180 2210 c0 -5 5 -10 10 -10 6 0 10 5 10 10 0 6 -4 10 -10 10 -5 0
-10 -4 -10 -10z"/>
<path d="M1710 2180 c0 -4 6 -15 14 -25 12 -17 13 -17 18 6 3 19 0 25 -14 25
-10 0 -18 -3 -18 -6z"/>
<path d="M2857 2170 c3 -11 9 -20 15 -20 5 0 4 9 -2 20 -6 11 -12 20 -14 20
-2 0 -2 -9 1 -20z"/>
<path d="M2940 2152 c0 -5 7 -17 15 -28 14 -19 14 -19 15 2 0 12 -7 24 -15 28
-8 3 -15 2 -15 -2z"/>
<path d="M1695 2085 c-10 -15 -171 -45 -242 -45 -38 0 -80 -34 -89 -72 -7 -31
0 -34 43 -17 46 19 93 27 98 19 3 -5 13 -7 23 -6 9 2 20 -1 23 -6 4 -7 14 -6
26 1 12 6 53 8 96 6 61 -4 77 -2 77 9 0 8 -7 17 -16 20 -9 4 -14 9 -11 12 6 7
69 -25 79 -40 4 -6 8 -22 9 -36 l1 -25 11 28 c6 15 14 27 19 27 4 0 8 12 8 28
0 64 -125 143 -155 97z m-1 -91 c24 -9 19 -19 -9 -20 -15 -1 -25 3 -25 12 0
15 10 17 34 8z"/>
<path d="M2123 2062 c-24 -24 -15 -35 23 -29 34 6 35 5 20 -12 -9 -10 -16 -20
-16 -24 0 -3 33 -4 73 -1 39 3 120 6 179 7 111 2 122 9 59 41 -53 27 -315 41
-338 18z m127 -47 c0 -10 -10 -14 -30 -12 l-31 2 22 17 c22 19 39 16 39 -7z"/>
<path d="M2832 1902 c-6 -15 -14 -44 -18 -64 -5 -33 -4 -38 14 -38 22 0 32 25
32 82 0 46 -14 56 -28 20z"/>
<path d="M1130 1812 c8 -45 16 -60 26 -49 9 8 -2 48 -20 72 -13 18 -13 16 -6
-23z"/>
<path d="M1730 1537 c0 -10 13 -31 28 -47 23 -22 35 -27 67 -24 21 1 53 -3 69
-10 51 -21 104 -28 112 -14 4 6 2 14 -4 16 -7 2 -12 12 -12 23 0 21 -29 26
-47 8 -9 -9 -20 -5 -44 15 -17 15 -38 25 -45 22 -7 -3 -29 -8 -50 -12 -32 -6
-39 -3 -55 17 -16 21 -19 21 -19 6z"/>
<path d="M2049 1513 c-12 -15 -12 -16 4 -10 10 4 31 7 45 7 21 0 24 2 12 10
-23 15 -46 12 -61 -7z"/>
<path d="M2360 1424 c0 -6 7 -17 16 -25 8 -7 24 -29 34 -48 16 -31 19 -33 20
-13 0 12 -16 39 -35 60 -19 20 -35 32 -35 26z"/>
<path d="M2295 1328 c-22 -5 -50 -11 -61 -13 -17 -4 -21 -12 -21 -44 0 -36 2
-39 18 -31 10 6 25 10 33 10 21 0 126 72 120 82 -6 10 -37 9 -89 -4z"/>
<path d="M1603 1313 c-26 -18 -30 -43 -8 -43 8 0 15 -4 15 -9 0 -5 15 -18 33
-29 17 -11 50 -33 71 -49 27 -19 40 -24 43 -15 5 13 33 17 33 5 0 -7 39 -8 88
-4 6 0 12 8 12 17 0 13 -3 14 -15 4 -9 -7 -22 -9 -32 -5 -10 5 -26 7 -36 6
-10 -1 -21 7 -26 21 -12 31 -6 37 29 33 17 -2 30 0 30 5 0 6 7 10 15 10 9 0
15 -9 15 -22 l0 -22 20 22 c24 25 31 27 47 11 12 -12 43 -6 43 9 0 13 -75 33
-94 26 -9 -3 -22 -2 -29 3 -6 6 -34 9 -62 7 -81 -4 -155 6 -155 22 0 18 -9 17
-37 -3z"/>
<path d="M2100 1291 c0 -5 9 -7 20 -4 11 3 20 7 20 9 0 2 -9 4 -20 4 -11 0
-20 -4 -20 -9z"/>
<path d="M2030 1281 c0 -18 18 -21 30 -6 10 13 9 15 -9 15 -11 0 -21 -4 -21
-9z"/>
<path d="M1810 1230 c0 -5 5 -10 11 -10 5 0 7 5 4 10 -3 6 -8 10 -11 10 -2 0
-4 -4 -4 -10z"/>
<path d="M2060 1200 c0 -5 7 -10 15 -10 8 0 15 5 15 10 0 6 -7 10 -15 10 -8 0
-15 -4 -15 -10z"/>
<path d="M1970 1170 c0 -5 7 -10 16 -10 8 0 12 5 9 10 -3 6 -10 10 -16 10 -5
0 -9 -4 -9 -10z"/>
<path d="M1540 866 c0 -9 13 -37 29 -63 50 -79 29 -67 -48 29 -21 26 -45 16
-35 -15 3 -12 11 -26 18 -32 6 -5 24 -30 40 -55 39 -62 169 -187 252 -243 68
-46 72 -47 146 -47 81 0 148 20 148 45 0 8 8 19 18 24 37 22 42 28 37 44 -4 9
-21 19 -38 22 -61 13 -127 47 -127 65 0 9 -6 17 -12 18 -7 1 -28 4 -47 6 -18
2 -37 9 -40 15 -4 6 -19 12 -33 13 -15 1 -24 6 -22 10 3 4 0 8 -6 8 -7 0 -34
11 -62 25 -27 14 -56 25 -63 25 -7 0 -15 3 -17 8 -5 10 -66 52 -77 52 -5 0
-21 14 -35 31 -17 20 -26 25 -26 15z"/>
<path d="M1277 630 c-8 -11 -34 -31 -58 -44 -24 -13 -91 -49 -149 -81 -58 -31
-161 -88 -230 -125 -216 -117 -300 -168 -442 -271 -76 -55 -138 -102 -138
-105 0 -2 843 -4 1872 -4 l1873 0 -40 27 c-22 15 -61 41 -87 58 -26 16 -73 49
-105 71 -67 48 -357 211 -485 273 -48 24 -105 56 -125 73 -50 39 -99 64 -144
71 -19 3 -53 17 -74 31 -56 39 -76 33 -31 -9 38 -35 39 -36 33 -90 -12 -115
-139 -282 -264 -348 -131 -68 -371 -117 -571 -117 -111 1 -159 10 -363 70
-132 38 -152 47 -201 89 -30 26 -53 52 -50 59 2 7 -2 12 -9 12 -25 0 -133 143
-175 233 -28 61 -30 94 -8 125 13 19 13 22 0 22 -8 0 -21 -9 -29 -20z"/>
<path d="M1460 470 c0 -11 5 -20 11 -20 6 0 8 -8 4 -19 -7 -24 21 -49 37 -33
8 8 7 13 -6 18 -13 5 -14 9 -5 20 9 11 8 15 -5 20 -9 3 -14 10 -11 14 3 4 -2
10 -10 14 -10 4 -15 -1 -15 -14z"/>
</g>
</svg>
